<?xml version="1.0" encoding="utf-8"?>
<!-- Generator: Adobe Illustrator 27.5.0, SVG Export Plug-In . SVG Version: 6.00 Build 0)  -->
<svg version="1.1" id="Layer_1" xmlns="http://www.w3.org/2000/svg" xmlns:xlink="http://www.w3.org/1999/xlink" x="0px" y="0px"
	 viewBox="0 0 2114.676 2114.676" style="enable-background:new 0 0 2114.676 2114.676;" xml:space="preserve">
<rect x="5.542" y="0" style="fill:url(#SVGID_1_);" width="2109.134" height="2110.397"/>
<g>
	<g>
		<path style="fill:#E9A950;stroke:#2B2B2B;stroke-width:35.1145;stroke-miterlimit:10;" d="M1795.498,917.793
			c-17.452-87.014-49.933-168.62-94.563-241.975c-111.173-182.63-297.876-314.17-516.71-351.321
			c-41.26-6.988-83.643-10.64-126.869-10.64c-40.909,0-81.08,3.266-120.197,9.551c-201.066,32.235-375.515,144.11-490.023,302.231
			c-35.887,49.547-65.91,103.658-88.98,161.281c-34.658,86.487-53.725,180.945-53.725,279.828
			c0,77.041,11.588,151.344,33.078,221.327c33.253,108.258,90.244,206.122,164.898,287.483
			c137.649,150.009,335.309,244.046,554.95,244.046c415.791,0,752.89-337.064,752.89-752.855
			C1810.246,1015.762,1805.19,965.935,1795.498,917.793z M1292.869,1066.749c0,130.064-105.414,235.513-235.513,235.513
			s-235.548-105.449-235.548-235.513c0-130.099,105.449-235.583,235.548-235.583S1292.869,936.649,1292.869,1066.749z"/>
		<path style="fill:#C9883A;" d="M1795.498,917.793c-17.452-87.014-49.933-168.62-94.563-241.975
			c-84.661-139.053-213.11-248.505-366.209-309.183c113.139,63.452,208.229,155.347,275.579,265.993
			c44.631,73.354,77.112,154.96,94.564,241.974c9.691,48.142,14.748,97.969,14.748,148.956
			c0,415.791-337.099,752.856-752.89,752.856c-98.075,0-191.76-18.751-277.686-52.882c108.89,61.169,234.53,96.073,368.316,96.073
			c415.791,0,752.89-337.064,752.89-752.855C1810.246,1015.762,1805.19,965.935,1795.498,917.793z"/>
		<path style="fill:none;stroke:#2B2B2B;stroke-width:35.1145;stroke-miterlimit:10;" d="M1795.498,917.793
			c-17.452-87.014-49.933-168.62-94.563-241.975c-111.173-182.63-297.876-314.17-516.71-351.321
			c-41.26-6.988-83.643-10.64-126.869-10.64c-40.909,0-81.08,3.266-120.197,9.551c-201.066,32.235-375.515,144.11-490.023,302.231
			c-35.887,49.547-65.91,103.658-88.98,161.281c-34.658,86.487-53.725,180.945-53.725,279.828
			c0,77.041,11.588,151.344,33.078,221.327c33.253,108.258,90.244,206.122,164.898,287.483
			c137.649,150.009,335.309,244.046,554.95,244.046c415.791,0,752.89-337.064,752.89-752.855
			C1810.246,1015.762,1805.19,965.935,1795.498,917.793z M1292.869,1066.749c0,130.064-105.414,235.513-235.513,235.513
			s-235.548-105.449-235.548-235.513c0-130.099,105.449-235.583,235.548-235.583S1292.869,936.649,1292.869,1066.749z"/>
		<g>
			<path style="fill:#FF69AD;stroke:#282826;stroke-width:24.5802;stroke-miterlimit:10;" d="M1774.148,758.198
				c-22.684-36.168-47.405-62.504-73.214-82.379c-87.084-67.139-186.212-60.607-258.689-109.592
				c-83.397-56.359-134.102-183.93-258.021-241.729c-43.612-20.331-96.249-32.024-162.545-28.934
				c-29.988,1.37-57.939,11.833-84.521,27.846C847.582,377.38,773.806,494.698,692.656,542.7
				c-82.414,48.739-161.632,6.742-245.521,82.94c-23.211,21.104-46.807,51.232-70.896,94.88
				c-12.009,21.701-17.276,43.823-18.084,66.401c-3.266,86.136,58.115,178.909,58.115,280.284
				c0,75.672-58.571,139.861-78.762,220.87c-10.569,42.383-10.605,89.366,13.73,145.058
				c38.696,88.488,92.878,126.096,151.168,142.424c83.537,23.316,175.397,2.949,241.939,25.985
				c120.478,41.681,202.26,170.797,348.477,174.905c200.047,5.583,183.263-156.786,300.756-243.976
				c94.248-69.948,224.733-44.736,274.666-152.256c41.997-90.35,31.006-171.394,31.006-277.58
				c0-73.741,67.209-120.794,96.249-184.842C1814.46,875.937,1817.164,826.811,1774.148,758.198z M1057.356,1302.262
				c-130.099,0-235.548-105.449-235.548-235.513c0-130.099,105.449-235.583,235.548-235.583s235.513,105.484,235.513,235.583
				C1292.869,1196.813,1187.455,1302.262,1057.356,1302.262z"/>
			<path style="fill:#D64386;" d="M1774.148,758.198c-22.684-36.168-47.405-62.504-73.214-82.379
				c-87.084-67.139-186.212-60.607-258.689-109.592c-39.708-26.834-72.014-69.814-108.331-113.718
				c0.013,0.006,0.025,0.01,0.037,0.017c-3.744-4.524-7.55-9.056-11.393-13.584c-0.686-0.809-1.368-1.616-2.058-2.424
				c-1.547-1.813-3.11-3.62-4.677-5.429c-1.093-1.263-2.187-2.524-3.291-3.784c-1.331-1.519-2.676-3.033-4.022-4.547
				c-1.33-1.495-2.664-2.987-4.01-4.476c-1.219-1.348-2.448-2.69-3.68-4.031c-1.491-1.624-2.992-3.241-4.504-4.854
				c-1.154-1.23-2.316-2.455-3.484-3.679c-1.617-1.695-3.247-3.38-4.891-5.059c-1.119-1.143-2.243-2.282-3.374-3.417
				c-1.726-1.732-3.471-3.452-5.228-5.164c-1.1-1.071-2.202-2.141-3.314-3.203c-1.824-1.743-3.672-3.469-5.532-5.188
				c-1.096-1.013-2.192-2.026-3.301-3.03c-1.918-1.737-3.866-3.45-5.825-5.157c-1.099-0.958-2.194-1.919-3.306-2.867
				c-2.016-1.719-4.068-3.41-6.129-5.095c-1.104-0.902-2.199-1.811-3.315-2.702c-2.121-1.693-4.282-3.352-6.452-5.005
				c-1.11-0.846-2.208-1.702-3.331-2.538c-2.23-1.658-4.508-3.275-6.792-4.887c-1.117-0.789-2.216-1.591-3.346-2.368
				c-2.367-1.628-4.789-3.208-7.216-4.783c-1.099-0.714-2.177-1.447-3.289-2.15c-2.541-1.605-5.143-3.155-7.751-4.699
				c-1.057-0.626-2.087-1.276-3.155-1.892c-2.855-1.645-5.779-3.225-8.717-4.793c-0.871-0.465-1.713-0.957-2.591-1.414
				c-3.846-2.004-7.758-3.945-11.753-5.808c-43.612-20.331-96.249-32.024-162.545-28.934c-29.711,1.357-57.421,11.649-83.782,27.412
				c-0.047,0.028-0.095,0.054-0.142,0.083c0,0,0,0,0.001,0c-0.199,0.119-0.399,0.231-0.598,0.351
				C847.582,377.38,773.806,494.698,692.656,542.7c-82.414,48.739-161.632,6.742-245.521,82.94
				c-23.211,21.104-46.807,51.232-70.896,94.88c-12.009,21.701-17.276,43.823-18.084,66.401
				c-3.266,86.136,58.115,178.909,58.115,280.284c0,75.672-58.571,139.861-78.762,220.87
				c-10.569,42.383-10.605,89.366,13.73,145.058c38.696,88.488,92.878,126.096,151.168,142.424c2.686,0.75,5.382,1.451,8.084,2.113
				c0.657,0.161,1.318,0.3,1.976,0.456c2.049,0.486,4.1,0.966,6.157,1.406c0.798,0.17,1.598,0.318,2.397,0.482
				c1.925,0.395,3.851,0.787,5.782,1.145c0.85,0.157,1.703,0.295,2.555,0.445c1.883,0.333,3.766,0.663,5.654,0.962
				c0.884,0.141,1.771,0.264,2.656,0.398c1.859,0.28,3.718,0.557,5.58,0.808c0.899,0.122,1.799,0.229,2.699,0.344
				c1.856,0.237,3.713,0.47,5.571,0.681c0.89,0.101,1.781,0.191,2.672,0.286c1.873,0.2,3.745,0.395,5.619,0.571
				c0.882,0.083,1.764,0.158,2.646,0.236c1.884,0.166,3.767,0.327,5.651,0.472c0.87,0.067,1.739,0.129,2.609,0.191
				c1.894,0.136,3.788,0.267,5.681,0.384c0.871,0.054,1.741,0.104,2.612,0.154c1.885,0.109,3.768,0.212,5.651,0.304
				c0.885,0.044,1.77,0.085,2.655,0.125c1.857,0.085,3.713,0.164,5.567,0.236c0.926,0.036,1.851,0.07,2.776,0.104
				c1.772,0.063,3.541,0.122,5.309,0.175c1.052,0.032,2.103,0.063,3.154,0.092c1.546,0.042,3.09,0.083,4.632,0.12
				c1.382,0.033,2.762,0.066,4.141,0.096c0.971,0.021,1.94,0.041,2.91,0.061c6.596,0.134,13.156,0.241,19.656,0.357
				c-0.008-0.003-0.016-0.005-0.023-0.008c39.631,0.689,77.158,1.797,108.914,12.79c120.478,41.681,202.26,170.797,348.477,174.905
				c200.047,5.583,183.263-156.786,300.756-243.976c94.248-69.948,224.733-44.736,274.666-152.256
				c41.997-90.35,31.006-171.394,31.006-277.58c0-73.741,67.209-120.794,96.249-184.842
				C1814.46,875.937,1817.164,826.811,1774.148,758.198z M1646.516,870.803c-39.859,47.647-119.678,100.381-119.678,165.027
				c0,93.053,78.237,187.248,39.716,266.432c-45.789,94.212-208.13,55.768-294.582,117.078
				c-107.731,76.409-18.848,244.538-202.286,239.622c-134.067-3.582-232.171-193.421-380.646-148.679
				c-186.103,56.08-321.734-63.687-295.746-186.66c15.836-74.935,139.803-143.827,139.803-212.862
				c0-92.456-104.867-126.147-124.02-256.977c-2.988-20.41-11.721-121.97,68.96-189.824
				c132.881-111.755,249.079,5.218,322.992-67.924c81.805-80.952,136.038-384.635,388.514-190.546
				c78.895,60.65,167.157,199.341,248.801,255.642c61.561,42.452,138.076,32.199,172.185,48.757
				C1701.262,753.935,1679.674,831.166,1646.516,870.803z"/>
			<path style="fill:#D64386;" d="M1039.026,746.68c-174.941,0-316.733,138.667-316.733,309.745
				c0,171.043,141.792,309.71,316.733,309.71c174.905,0,316.733-138.667,316.733-309.71
				C1355.759,885.347,1213.931,746.68,1039.026,746.68z M1057.356,1302.262c-130.099,0-235.548-105.449-235.548-235.513
				c0-130.099,105.449-235.583,235.548-235.583s235.513,105.484,235.513,235.583
				C1292.869,1196.813,1187.455,1302.262,1057.356,1302.262z"/>
			<path style="fill:none;stroke:#282826;stroke-width:24.5802;stroke-miterlimit:10;" d="M1774.148,758.198
				c-22.684-36.168-47.405-62.504-73.214-82.379c-87.084-67.139-186.212-60.607-258.689-109.592
				c-83.397-56.359-134.102-183.93-258.021-241.729c-43.612-20.331-96.249-32.024-162.545-28.934
				c-29.988,1.37-57.939,11.833-84.521,27.846C847.582,377.38,773.806,494.698,692.656,542.7
				c-82.414,48.739-161.632,6.742-245.521,82.94c-23.211,21.104-46.807,51.232-70.896,94.88
				c-12.009,21.701-17.276,43.823-18.084,66.401c-3.266,86.136,58.115,178.909,58.115,280.284
				c0,75.672-58.571,139.861-78.762,220.87c-10.569,42.383-10.605,89.366,13.73,145.058
				c38.696,88.488,92.878,126.096,151.168,142.424c83.537,23.316,175.397,2.949,241.939,25.985
				c120.478,41.681,202.26,170.797,348.477,174.905c200.047,5.583,183.263-156.786,300.756-243.976
				c94.248-69.948,224.733-44.736,274.666-152.256c41.997-90.35,31.006-171.394,31.006-277.58
				c0-73.741,67.209-120.794,96.249-184.842C1814.46,875.937,1817.164,826.811,1774.148,758.198z M1057.356,1302.262
				c-130.099,0-235.548-105.449-235.548-235.513c0-130.099,105.449-235.583,235.548-235.583s235.513,105.484,235.513,235.583
				C1292.869,1196.813,1187.455,1302.262,1057.356,1302.262z"/>
		</g>
		<g>
			<path style="fill:#FFFFFF;" d="M1203.666,1345.19l-0.588-1.208c-4.997-10.262-1.161-22.629,8.752-28.287
				c78.454-44.781,123.289-117.699,133.364-217.04c5.635-55.558-1.432-105.107-6.547-131.183
				c-2.171-11.067,4.523-21.918,15.375-24.987l1.333-0.377c12.187-3.447,24.714,4.216,27.163,16.642
				c5.753,29.187,13.36,83.215,7.153,144.414c-11.471,113.103-65.149,199.531-155.706,251.357
				C1223.074,1360.755,1209.16,1356.472,1203.666,1345.19z"/>
			<path style="fill:#FFFFFF;" d="M1292.769,883.275c-2.932-4.261-6.197-8.677-9.446-12.878c-7.014-9.07-5.83-22.008,2.774-29.585
				l0.008-0.008c9.359-8.241,23.758-6.935,31.401,2.918c3.531,4.553,7.323,9.654,10.934,14.917
				c7.668,11.178,3.356,26.573-9.024,32.096l0,0C1309.892,894.985,1298.681,891.867,1292.769,883.275z"/>
		</g>
	</g>
	<g>
		<g>
			<path style="fill:#C43B80;" d="M914.846,701.918h-97.804c-13.144,0-23.898-10.754-23.898-23.898l0,0
				c0-13.144,10.754-23.898,23.898-23.898h97.804c13.144,0,23.898,10.754,23.898,23.898l0,0
				C938.745,691.164,927.99,701.918,914.846,701.918z"/>
			<path style="fill:#C43B80;" d="M1190.473,529.144h-97.803c-13.144,0-23.898-10.754-23.898-23.898v0
				c0-13.144,10.754-23.898,23.898-23.898h97.803c13.144,0,23.898,10.754,23.898,23.898v0
				C1214.372,518.39,1203.617,529.144,1190.473,529.144z"/>
			<path style="fill:#C43B80;" d="M1243.645,672.065l-82.646,52.298c-11.107,7.029-25.945,3.691-32.974-7.415v0
				c-7.029-11.107-3.692-25.945,7.416-32.974l82.646-52.298c11.107-7.029,25.945-3.692,32.974,7.415l0,0
				C1258.089,650.198,1254.752,665.037,1243.645,672.065z"/>
			<path style="fill:#C43B80;" d="M606.565,784.364l-82.646,52.298c-11.107,7.029-25.945,3.692-32.974-7.415l0,0
				c-7.029-11.107-3.691-25.945,7.415-32.974l82.646-52.298c11.107-7.029,25.945-3.692,32.974,7.415l0,0
				C621.009,762.497,617.672,777.336,606.565,784.364z"/>
			<path style="fill:#C43B80;" d="M1635.014,1064.513l-82.646,52.298c-11.107,7.028-25.945,3.692-32.974-7.416l0,0
				c-7.029-11.107-3.692-25.945,7.415-32.974l82.646-52.298c11.107-7.028,25.945-3.692,32.974,7.416l0,0
				C1649.458,1042.646,1646.121,1057.485,1635.014,1064.513z"/>
			<path style="fill:#C43B80;" d="M1015.584,1492.591l-84.7-48.902c-11.383-6.572-15.319-21.263-8.747-32.646l0,0
				c6.572-11.383,21.263-15.319,32.646-8.747l84.7,48.902c11.383,6.572,15.319,21.262,8.747,32.646v0
				C1041.657,1495.227,1026.967,1499.163,1015.584,1492.591z"/>
			<path style="fill:#C43B80;" d="M772.417,923.198l-93.907,27.331c-12.62,3.673-25.951-3.648-29.624-16.268v0
				c-3.673-12.62,3.647-25.951,16.268-29.624l93.907-27.331c12.62-3.673,25.951,3.648,29.624,16.268l0,0
				C792.358,906.194,785.037,919.525,772.417,923.198z"/>
			<path style="fill:#C43B80;" d="M572.193,1252.435l-69.158-69.158c-9.294-9.294-9.294-24.503,0-33.797l0,0
				c9.294-9.294,24.503-9.294,33.797,0l69.157,69.158c9.294,9.294,9.294,24.503,0,33.797l0,0
				C596.696,1261.729,581.488,1261.729,572.193,1252.435z"/>
			<path style="fill:#C43B80;" d="M1555.725,1352.093l-93.71-27.998c-12.594-3.763-19.819-17.145-16.057-29.739v0
				c3.763-12.594,17.146-19.819,29.74-16.057l93.71,27.998c12.594,3.763,19.819,17.145,16.057,29.739v0
				C1581.702,1348.63,1568.319,1355.856,1555.725,1352.093z"/>
			<path style="fill:#C43B80;" d="M674.165,1471.342h-97.803c-13.144,0-23.898-10.754-23.898-23.898l0,0
				c0-13.144,10.754-23.898,23.898-23.898h97.803c13.144,0,23.898,10.754,23.898,23.898l0,0
				C698.063,1460.588,687.309,1471.342,674.165,1471.342z"/>
			<path style="fill:#C43B80;" d="M1541.088,864.598l-78.959-57.715c-10.611-7.756-12.947-22.785-5.191-33.396l0,0
				c7.756-10.611,22.785-12.947,33.396-5.191l78.958,57.715c10.611,7.756,12.947,22.785,5.191,33.396l0,0
				C1566.728,870.018,1551.699,872.354,1541.088,864.598z"/>
			<path style="fill:#C43B80;" d="M1153.348,1563.649l60.913-76.519c8.186-10.284,23.298-12,33.581-3.813l0,0
				c10.283,8.186,12,23.298,3.813,33.581l-60.913,76.519c-8.186,10.284-23.298,12-33.581,3.813l0,0
				C1146.878,1589.044,1145.162,1573.932,1153.348,1563.649z"/>
		</g>
		<g>
			<g>
				<path style="fill:#8ABA15;" d="M885.1,687.858h-97.803c-13.144,0-23.898-10.754-23.898-23.898v0
					c0-13.144,10.754-23.898,23.898-23.898H885.1c13.144,0,23.898,10.754,23.898,23.898v0
					C908.999,677.104,898.245,687.858,885.1,687.858z"/>
				<path style="fill:#282826;" d="M885.1,694.88h-97.804c-17.05,0-30.921-13.871-30.921-30.921
					c0-17.05,13.871-30.921,30.921-30.921H885.1c17.05,0,30.921,13.871,30.921,30.921C916.022,681.009,902.151,694.88,885.1,694.88z
					 M787.297,647.084c-9.305,0-16.875,7.57-16.875,16.875c0,9.305,7.57,16.875,16.875,16.875H885.1
					c9.305,0,16.875-7.57,16.875-16.875c0-9.305-7.57-16.875-16.875-16.875H787.297z"/>
			</g>
			<g>
				<path style="fill:#E8D20C;" d="M1160.728,515.083h-97.803c-13.144,0-23.898-10.754-23.898-23.898v0
					c0-13.144,10.754-23.898,23.898-23.898h97.803c13.144,0,23.898,10.754,23.898,23.898v0
					C1184.626,504.329,1173.872,515.083,1160.728,515.083z"/>
				<path style="fill:#282826;" d="M1160.728,522.107h-97.803c-17.05,0-30.921-13.871-30.921-30.921
					c0-17.05,13.871-30.921,30.921-30.921h97.803c17.05,0,30.921,13.871,30.921,30.921
					C1191.649,508.235,1177.778,522.107,1160.728,522.107z M1062.924,474.31c-9.305,0-16.875,7.57-16.875,16.875
					c0,9.305,7.57,16.875,16.875,16.875h97.803c9.305,0,16.876-7.57,16.876-16.875c0-9.305-7.571-16.875-16.876-16.875H1062.924z"/>
			</g>
			<g>
				<path style="fill:#0CBEE8;" d="M1213.899,658.005l-82.646,52.298c-11.107,7.029-25.945,3.691-32.974-7.416l0,0
					c-7.028-11.107-3.692-25.945,7.416-32.974l82.646-52.298c11.107-7.028,25.945-3.692,32.974,7.415l0,0
					C1228.343,636.138,1225.006,650.976,1213.899,658.005z"/>
				<path style="fill:#282826;" d="M1118.579,721.018c-2.288,0-4.594-0.255-6.883-0.77c-8.077-1.816-14.949-6.648-19.351-13.605
					c-9.116-14.408-4.812-33.546,9.595-42.664l82.646-52.298c14.408-9.117,33.546-4.812,42.663,9.595
					c4.403,6.957,5.827,15.236,4.01,23.313c-1.816,8.076-6.649,14.949-13.605,19.351l-82.646,52.298
					C1130.024,719.392,1124.36,721.018,1118.579,721.018z M1201.093,620.939c-3.084,0-6.203,0.843-8.996,2.611l-82.646,52.299
					c-7.863,4.975-10.212,15.42-5.236,23.283c2.396,3.787,6.148,6.419,10.563,7.412c4.417,0.994,8.935,0.221,12.72-2.176
					l82.646-52.299c3.786-2.396,6.419-6.147,7.412-10.563c0.993-4.416,0.22-8.934-2.177-12.72
					C1212.172,623.717,1206.69,620.939,1201.093,620.939z"/>
			</g>
			<g>
				<path style="fill:#E8450C;" d="M576.82,770.304l-82.646,52.298c-11.107,7.028-25.945,3.691-32.974-7.416l0,0
					c-7.028-11.107-3.691-25.945,7.415-32.974l82.646-52.298c11.107-7.029,25.945-3.692,32.974,7.415l0,0
					C591.263,748.437,587.927,763.275,576.82,770.304z"/>
				<path style="fill:#282826;" d="M481.444,833.32c-10.257,0-20.3-5.089-26.179-14.378c-9.117-14.408-4.813-33.546,9.595-42.664
					l82.646-52.299c14.407-9.117,33.546-4.813,42.664,9.595c4.402,6.957,5.826,15.236,4.01,23.312
					c-1.816,8.076-6.648,14.949-13.605,19.351l-82.646,52.299C492.81,831.775,487.094,833.32,481.444,833.32z M564.013,733.238
					c-3.084,0-6.203,0.843-8.997,2.611l-82.646,52.298c-7.863,4.975-10.212,15.421-5.236,23.284
					c4.975,7.863,15.42,10.213,23.284,5.236l82.646-52.299c3.786-2.396,6.419-6.147,7.412-10.563
					c0.993-4.416,0.22-8.933-2.176-12.72C575.093,736.016,569.61,733.238,564.013,733.238z"/>
			</g>
			<g>
				<path style="fill:#E8D20C;" d="M1605.268,1050.453l-82.646,52.298c-11.107,7.028-25.945,3.691-32.974-7.416v0
					c-7.028-11.107-3.692-25.945,7.416-32.974l82.646-52.298c11.107-7.029,25.945-3.691,32.974,7.416l0,0
					C1619.712,1028.586,1616.375,1043.424,1605.268,1050.453z"/>
				<path style="fill:#282826;" d="M1509.892,1113.469c-10.257,0-20.3-5.088-26.178-14.378c-4.403-6.956-5.827-15.236-4.01-23.312
					c1.816-8.076,6.647-14.949,13.605-19.352l82.646-52.298c14.408-9.117,33.547-4.812,42.664,9.595
					c9.116,14.408,4.812,33.547-9.595,42.664l-3.755-5.935l3.755,5.935l-82.646,52.298
					C1521.259,1111.924,1515.542,1113.469,1509.892,1113.469z M1592.411,1013.401c-3.153,0-6.237,0.883-8.946,2.598l-82.646,52.298
					c-3.786,2.396-6.419,6.148-7.412,10.563c-0.993,4.417-0.22,8.933,2.177,12.72c4.975,7.864,15.418,10.21,23.283,5.236
					l82.646-52.298c7.863-4.975,10.212-15.421,5.236-23.284c-2.396-3.786-6.148-6.419-10.563-7.412
					C1594.929,1013.54,1593.664,1013.401,1592.411,1013.401z"/>
			</g>
			<g>
				<path style="fill:#0CBEE8;" d="M985.838,1478.531l-84.7-48.902c-11.383-6.572-15.319-21.263-8.747-32.646l0,0
					c6.572-11.383,21.263-15.319,32.646-8.747l84.7,48.902c11.383,6.572,15.319,21.262,8.747,32.646l0,0
					C1011.911,1481.167,997.221,1485.103,985.838,1478.531z"/>
				<path style="fill:#282826;" d="M997.734,1488.749c-5.243,0-10.55-1.331-15.408-4.136h0l-84.7-48.902
					c-7.13-4.115-12.237-10.786-14.379-18.783c-2.143-7.995-1.056-16.326,3.061-23.456c8.525-14.764,27.474-19.842,42.239-11.317
					l84.7,48.902c7.13,4.115,12.236,10.786,14.379,18.783c2.142,7.995,1.056,16.326-3.061,23.456
					C1018.845,1483.203,1008.428,1488.749,997.734,1488.749z M989.349,1472.449c8.06,4.652,18.4,1.881,23.053-6.177
					c2.24-3.881,2.829-8.426,1.658-12.797c-1.171-4.373-3.953-8.014-7.834-10.255l-84.7-48.902c-8.06-4.651-18.4-1.881-23.053,6.177
					c-2.24,3.881-2.829,8.426-1.657,12.797c1.171,4.373,3.953,8.014,7.834,10.255L989.349,1472.449z"/>
			</g>
			<g>
				<path style="fill:#E8D20C;" d="M742.671,909.138l-93.907,27.331c-12.62,3.673-25.951-3.648-29.624-16.268l0,0
					c-3.673-12.62,3.647-25.951,16.268-29.624l93.907-27.331c12.62-3.673,25.951,3.648,29.624,16.268v0
					C762.612,892.134,755.292,905.465,742.671,909.138z"/>
				<path style="fill:#282826;" d="M642.093,944.449c-5.138,0-10.231-1.298-14.877-3.849c-7.256-3.985-12.519-10.532-14.82-18.438
					c-2.301-7.905-1.373-16.254,2.611-23.51c3.985-7.256,10.533-12.519,18.438-14.82l93.908-27.331
					c16.37-4.767,33.564,4.678,38.33,21.048c4.765,16.371-4.678,33.566-21.049,38.33l-93.907,27.331
					C647.882,944.039,644.98,944.449,642.093,944.449z M735.986,869.315c-1.558,0-3.14,0.218-4.709,0.674l-93.907,27.331
					c-4.303,1.252-7.872,4.127-10.05,8.094c-2.179,3.968-2.689,8.522-1.437,12.825c1.252,4.302,4.127,7.872,8.094,10.051
					c3.968,2.179,8.523,2.69,12.824,1.436l93.908-27.331c8.934-2.6,14.087-11.984,11.487-20.919
					C750.052,874.11,743.298,869.315,735.986,869.315z"/>
			</g>
			<g>
				<path style="fill:#8ABA15;" d="M542.448,1238.374l-69.158-69.157c-9.294-9.294-9.294-24.503,0-33.797l0,0
					c9.294-9.294,24.503-9.294,33.797,0l69.158,69.157c9.294,9.294,9.294,24.503,0,33.797h0
					C566.951,1247.669,551.742,1247.669,542.448,1238.374z"/>
				<path style="fill:#282826;" d="M559.346,1252.368c-8.278,0-16.043-3.206-21.865-9.028l-69.157-69.157
					c-5.822-5.822-9.028-13.586-9.028-21.864c0-8.279,3.206-16.043,9.028-21.864c5.821-5.822,13.586-9.028,21.865-9.028
					c8.278,0,16.043,3.206,21.865,9.028l69.157,69.157c5.821,5.821,9.028,13.585,9.028,21.864c0,8.278-3.206,16.042-9.028,21.864
					C575.389,1249.161,567.625,1252.368,559.346,1252.368z M490.189,1135.472c-4.527,0-8.764,1.745-11.933,4.914
					c-3.169,3.169-4.914,7.406-4.914,11.933c0,4.525,1.745,8.764,4.914,11.933l69.157,69.157c3.169,3.169,7.407,4.914,11.933,4.914
					c4.526,0,8.764-1.745,11.932-4.914c3.169-3.169,4.914-7.407,4.914-11.933c0-4.526-1.745-8.764-4.914-11.932l-69.158-69.158
					C498.953,1137.217,494.715,1135.472,490.189,1135.472z"/>
			</g>
			<g>
				<path style="fill:#E8450C;" d="M1525.979,1338.033l-93.71-27.998c-12.594-3.763-19.819-17.146-16.057-29.739l0,0
					c3.763-12.594,17.146-19.819,29.739-16.057l93.71,27.998c12.594,3.763,19.819,17.146,16.057,29.739l0,0
					C1551.956,1334.57,1538.573,1341.796,1525.979,1338.033z"/>
				<path style="fill:#282826;" d="M1532.81,1346.061c-2.959,0-5.932-0.43-8.841-1.299l-93.71-27.998
					c-16.336-4.881-25.656-22.142-20.776-38.479c2.358-7.889,7.667-14.399,14.952-18.332c7.283-3.931,15.641-4.798,23.528-2.443
					l93.709,27.998c7.888,2.357,14.399,7.666,18.332,14.95c3.933,7.284,4.801,15.64,2.444,23.529
					c-2.358,7.888-7.667,14.398-14.951,18.331C1542.9,1344.8,1537.875,1346.061,1532.81,1346.061z M1439.139,1270.262
					c-2.766,0-5.514,0.691-8.032,2.051c-3.982,2.15-6.882,5.699-8.165,9.993c-2.663,8.915,2.423,18.336,11.339,20.999l93.71,27.998
					c4.292,1.284,8.849,0.804,12.833-1.345c3.983-2.15,6.883-5.7,8.166-9.994c1.283-4.293,0.805-8.851-1.345-12.833
					c-2.15-3.983-5.699-6.882-9.993-8.165l-93.71-27.998C1442.362,1270.496,1440.747,1270.262,1439.139,1270.262z"/>
			</g>
			<g>
				<path style="fill:#E8450C;" d="M644.419,1457.282h-97.804c-13.144,0-23.898-10.754-23.898-23.898v0
					c0-13.144,10.754-23.898,23.898-23.898h97.804c13.144,0,23.898,10.754,23.898,23.898v0
					C668.317,1446.527,657.563,1457.282,644.419,1457.282z"/>
				<path style="fill:#282826;" d="M644.419,1464.304h-97.803c-17.05,0-30.921-13.871-30.921-30.921
					c0-17.049,13.871-30.92,30.921-30.92h97.803c17.05,0,30.921,13.871,30.921,30.92
					C675.34,1450.433,661.469,1464.304,644.419,1464.304z M546.616,1416.508c-9.305,0-16.875,7.571-16.875,16.875
					c0,9.305,7.57,16.876,16.875,16.876h97.803c9.305,0,16.875-7.571,16.875-16.876c0-9.304-7.57-16.875-16.875-16.875H546.616z"/>
			</g>
			<g>
				<path style="fill:#0CBEE8;" d="M1511.342,850.538l-78.959-57.715c-10.611-7.757-12.947-22.785-5.191-33.396v0
					c7.756-10.611,22.785-12.947,33.396-5.191l78.959,57.715c10.611,7.756,12.947,22.785,5.191,33.396l0,0
					C1536.982,855.958,1521.954,858.294,1511.342,850.538z"/>
				<path style="fill:#282826;" d="M1525.405,862.154c-6.331,0-12.716-1.933-18.207-5.946l-78.958-57.716
					c-6.646-4.858-11.008-12.039-12.278-20.219c-1.272-8.18,0.704-16.345,5.563-22.992c4.858-6.646,12.038-11.007,20.218-12.278
					c8.184-1.273,16.345,0.704,22.992,5.563l78.959,57.715c13.764,10.061,16.777,29.445,6.716,43.21
					C1544.361,857.765,1534.944,862.154,1525.405,862.154z M1515.487,844.868c7.51,5.491,18.09,3.848,23.582-3.666
					c5.491-7.512,3.847-18.091-3.666-23.582l-78.959-57.715c-3.617-2.644-8.068-3.719-12.545-3.023
					c-4.472,0.695-8.392,3.07-11.036,6.688c-2.645,3.618-3.718,8.073-3.023,12.546c0.694,4.472,3.07,8.392,6.687,11.036
					L1515.487,844.868z"/>
			</g>
			<g>
				<path style="fill:#8ABA15;" d="M1123.603,1549.588l60.913-76.519c8.186-10.284,23.298-12,33.581-3.813h0
					c10.284,8.186,12,23.298,3.813,33.581l-60.913,76.519c-8.186,10.283-23.298,12-33.581,3.813v0
					C1117.132,1574.984,1115.416,1559.872,1123.603,1549.588z"/>
				<path style="fill:#282826;" d="M1142.269,1595.381c-6.752,0-13.546-2.195-19.227-6.717
					c-6.441-5.127-10.503-12.481-11.437-20.706c-0.935-8.225,1.375-16.303,6.502-22.743l60.913-76.519
					c5.127-6.442,12.481-10.503,20.706-11.438c8.222-0.932,16.302,1.375,22.745,6.503c6.441,5.127,10.503,12.481,11.437,20.706
					c0.934,8.225-1.376,16.302-6.503,22.743l-60.913,76.519C1160.396,1591.389,1151.372,1595.38,1142.269,1595.381z
					 M1203.272,1471.103c-0.65,0-1.304,0.037-1.96,0.111c-4.497,0.511-8.511,2.723-11.303,6.229l-60.913,76.52
					c-2.791,3.505-4.046,7.913-3.536,12.41c0.511,4.497,2.724,8.511,6.23,11.303c3.506,2.791,7.91,4.045,12.411,3.536
					c4.497-0.511,8.511-2.723,11.302-6.229l60.913-76.519c2.791-3.507,4.046-7.914,3.536-12.412
					c-0.511-4.497-2.723-8.51-6.229-11.302C1210.728,1472.368,1207.076,1471.103,1203.272,1471.103z"/>
			</g>
		</g>
	</g>
	<g>
		<g>
			<circle style="fill:#C43B80;" cx="946.625" cy="547.225" r="23.219"/>
			<circle style="fill:#C43B80;" cx="712.471" cy="785.181" r="23.219"/>
			<circle style="fill:#C43B80;" cx="479.161" cy="1356.496" r="23.219"/>
			<circle style="fill:#C43B80;" cx="736.701" cy="1114.527" r="23.219"/>
			
				<ellipse transform="matrix(0.9216 -0.3882 0.3882 0.9216 -441.8173 432.8899)" style="fill:#C43B80;" cx="850.607" cy="1310.058" rx="23.219" ry="23.219"/>
			<circle style="fill:#C43B80;" cx="873.826" cy="1572.414" r="23.219"/>
			<circle style="fill:#C43B80;" cx="1346.669" cy="1442.306" r="23.219"/>
			<circle style="fill:#C43B80;" cx="1608.74" cy="1209.88" r="23.219"/>
			
				<ellipse transform="matrix(0.1602 -0.9871 0.9871 0.1602 564.287 2434.3608)" style="fill:#C43B80;" cx="1712.768" cy="885.56" rx="23.219" ry="23.219"/>
			<circle style="fill:#C43B80;" cx="1373.436" cy="710.84" r="23.219"/>
			<circle style="fill:#C43B80;" cx="1070.247" cy="398.777" r="23.219"/>
			<circle style="fill:#C43B80;" cx="502.38" cy="990.015" r="23.219"/>
		</g>
		<g>
			<g>
				<circle style="fill:#C2FFFC;" cx="932.218" cy="538.302" r="23.219"/>
				<path style="fill:#282826;" d="M932.217,566.415c-15.501,0-28.112-12.612-28.112-28.113c0-15.501,12.611-28.112,28.112-28.112
					c15.501,0,28.113,12.611,28.113,28.112C960.33,553.804,947.719,566.415,932.217,566.415z M932.217,519.977
					c-10.104,0-18.325,8.221-18.325,18.325c0,10.105,8.221,18.326,18.325,18.326c10.105,0,18.326-8.221,18.326-18.326
					C950.543,528.198,942.322,519.977,932.217,519.977z"/>
			</g>
			<g>
				
					<ellipse transform="matrix(0.9239 -0.3827 0.3827 0.9239 -243.9242 326.2261)" style="fill:#C2FFFC;" cx="698.063" cy="776.258" rx="23.219" ry="23.219"/>
				<path style="fill:#282826;" d="M698.063,804.371c-15.501,0-28.112-12.612-28.112-28.113c0-15.501,12.611-28.112,28.112-28.112
					c15.501,0,28.113,12.611,28.113,28.112C726.176,791.76,713.564,804.371,698.063,804.371z M698.063,757.933
					c-10.104,0-18.325,8.221-18.325,18.325c0,10.105,8.221,18.326,18.325,18.326c10.105,0,18.326-8.221,18.326-18.326
					C716.388,766.154,708.168,757.933,698.063,757.933z"/>
			</g>
			<g>
				
					<ellipse transform="matrix(0.9216 -0.3882 0.3882 0.9216 -486.6333 286.0589)" style="fill:#C2FFFC;" cx="464.754" cy="1347.573" rx="23.219" ry="23.219"/>
				<path style="fill:#282826;" d="M464.754,1375.686c-15.501,0-28.113-12.612-28.113-28.112s12.611-28.112,28.113-28.112
					s28.112,12.611,28.112,28.112S480.255,1375.686,464.754,1375.686z M464.754,1329.249c-10.105,0-18.326,8.22-18.326,18.325
					s8.221,18.325,18.326,18.325c10.104,0,18.325-8.22,18.325-18.325S474.858,1329.249,464.754,1329.249z"/>
			</g>
			<g>
				
					<ellipse transform="matrix(0.2321 -0.9727 0.9727 0.2321 -520.7452 1551.6168)" style="fill:#C2FFFC;" cx="722.293" cy="1105.605" rx="23.219" ry="23.219"/>
				<path style="fill:#282826;" d="M722.293,1133.718c-15.501,0-28.113-12.611-28.113-28.112s12.611-28.112,28.113-28.112
					s28.113,12.611,28.113,28.112S737.794,1133.718,722.293,1133.718z M722.293,1087.28c-10.105,0-18.326,8.22-18.326,18.325
					s8.221,18.325,18.326,18.325c10.105,0,18.326-8.22,18.326-18.325S732.398,1087.28,722.293,1087.28z"/>
			</g>
			<g>
				<circle style="fill:#C2FFFC;" cx="836.199" cy="1301.136" r="23.219"/>
				<path style="fill:#282826;" d="M836.199,1329.249c-15.501,0-28.112-12.612-28.112-28.113c0-15.501,12.611-28.112,28.112-28.112
					c15.501,0,28.113,12.611,28.113,28.112C864.311,1316.637,851.7,1329.249,836.199,1329.249z M836.199,1282.81
					c-10.104,0-18.325,8.22-18.325,18.325c0,10.105,8.221,18.326,18.325,18.326c10.105,0,18.326-8.221,18.326-18.326
					C854.524,1291.031,846.303,1282.81,836.199,1282.81z"/>
			</g>
			<g>
				<circle style="fill:#C2FFFC;" cx="859.418" cy="1563.492" r="23.219"/>
				<path style="fill:#282826;" d="M859.418,1591.605c-15.501,0-28.113-12.612-28.113-28.112c0-15.502,12.612-28.113,28.113-28.113
					c15.501,0,28.112,12.611,28.112,28.113C887.53,1578.993,874.919,1591.605,859.418,1591.605z M859.418,1545.166
					c-10.105,0-18.326,8.221-18.326,18.326c0,10.105,8.221,18.325,18.326,18.325c10.104,0,18.325-8.22,18.325-18.325
					C877.743,1553.387,869.522,1545.166,859.418,1545.166z"/>
			</g>
			<g>
				
					<ellipse transform="matrix(0.7071 -0.7071 0.7071 0.7071 -623.345 1361.8792)" style="fill:#C2FFFC;" cx="1332.261" cy="1433.383" rx="23.219" ry="23.219"/>
				<path style="fill:#282826;" d="M1332.261,1461.496c-15.501,0-28.112-12.611-28.112-28.113c0-15.501,12.611-28.112,28.112-28.112
					c15.502,0,28.113,12.611,28.113,28.112C1360.374,1448.885,1347.763,1461.496,1332.261,1461.496z M1332.261,1415.058
					c-10.105,0-18.325,8.22-18.325,18.325s8.22,18.326,18.325,18.326s18.326-8.221,18.326-18.326
					S1342.365,1415.058,1332.261,1415.058z"/>
			</g>
			<g>
				
					<ellipse transform="matrix(0.9239 -0.3827 0.3827 0.9239 -338.225 701.5414)" style="fill:#C2FFFC;" cx="1594.332" cy="1200.957" rx="23.219" ry="23.219"/>
				<path style="fill:#282826;" d="M1594.332,1229.07c-15.501,0-28.112-12.611-28.112-28.112c0-15.502,12.611-28.113,28.112-28.113
					c15.501,0,28.112,12.611,28.112,28.113C1622.445,1216.458,1609.833,1229.07,1594.332,1229.07z M1594.332,1182.632
					c-10.105,0-18.325,8.221-18.325,18.326c0,10.105,8.22,18.325,18.325,18.325c10.105,0,18.325-8.22,18.325-18.325
					C1612.657,1190.853,1604.437,1182.632,1594.332,1182.632z"/>
			</g>
			<g>
				<circle style="fill:#C2FFFC;" cx="1698.36" cy="876.638" r="23.219"/>
				<path style="fill:#282826;" d="M1698.36,904.751c-15.501,0-28.112-12.612-28.112-28.113c0-15.501,12.611-28.113,28.112-28.113
					c15.502,0,28.113,12.612,28.113,28.113C1726.473,892.139,1713.861,904.751,1698.36,904.751z M1698.36,858.313
					c-10.105,0-18.325,8.221-18.325,18.326c0,10.105,8.22,18.326,18.325,18.326c10.105,0,18.326-8.221,18.326-18.326
					C1716.686,866.533,1708.464,858.313,1698.36,858.313z"/>
			</g>
			<g>
				<circle style="fill:#C2FFFC;" cx="1359.028" cy="701.918" r="23.219"/>
				<path style="fill:#282826;" d="M1359.028,730.03c-15.501,0-28.112-12.611-28.112-28.112c0-15.501,12.612-28.113,28.112-28.113
					c15.501,0,28.112,12.611,28.112,28.113C1387.141,717.419,1374.529,730.03,1359.028,730.03z M1359.028,683.592
					c-10.105,0-18.325,8.221-18.325,18.326c0,10.104,8.22,18.325,18.325,18.325c10.105,0,18.325-8.221,18.325-18.325
					C1377.353,691.813,1369.133,683.592,1359.028,683.592z"/>
			</g>
			<g>
				<circle style="fill:#C2FFFC;" cx="1055.839" cy="389.854" r="23.219"/>
				<path style="fill:#282826;" d="M1055.839,417.967c-15.501,0-28.113-12.611-28.113-28.113s12.612-28.113,28.113-28.113
					c15.501,0,28.113,12.611,28.113,28.113S1071.34,417.967,1055.839,417.967z M1055.839,371.529
					c-10.105,0-18.325,8.221-18.325,18.326s8.221,18.326,18.325,18.326c10.104,0,18.326-8.221,18.326-18.326
					S1065.943,371.529,1055.839,371.529z"/>
			</g>
			<g>
				<circle style="fill:#C2FFFC;" cx="487.973" cy="981.093" r="23.219"/>
				<path style="fill:#282826;" d="M487.972,1009.206c-15.501,0-28.112-12.611-28.112-28.113c0-15.501,12.611-28.112,28.112-28.112
					s28.113,12.611,28.113,28.112C516.085,996.594,503.474,1009.206,487.972,1009.206z M487.972,962.768
					c-10.104,0-18.325,8.221-18.325,18.325c0,10.105,8.221,18.326,18.325,18.326c10.105,0,18.326-8.221,18.326-18.326
					C506.298,970.989,498.077,962.768,487.972,962.768z"/>
			</g>
		</g>
	</g>
</g>
</svg>
